<svg width="20" height="20" fill="none" viewBox="0 0 1024 1024" xmlns="http://www.w3.org/2000/svg">
<path fill-rule="evenodd" clip-rule="evenodd" d="M512 85.333333A426.666667 426.666667 0 0 0 85.333333 512a421.973333 421.973333 0 0 0 96.426667 270.08l-85.333333 85.333333a42.666667 42.666667 0 0 0-8.96 46.506667A42.666667 42.666667 0 0 0 128 938.666667h384a426.666667 426.666667 0 0 0 0-853.333334z m0 768H230.826667l39.68-39.68a42.666667 42.666667 0 0 0 0-60.16A341.333333 341.333333 0 1 1 512 853.333333z" fill="#ccadad" /></svg>